<?xml version="1.0" encoding="UTF-8"?>
<svg width="100px" height="100px" viewBox="0 0 100 100" version="1.1" xmlns="http://www.w3.org/2000/svg" xmlns:xlink="http://www.w3.org/1999/xlink">
    <!-- Generator: Sketch 42 (36781) - http://www.bohemiancoding.com/sketch -->
    <title>twitter</title>
    <desc>Created with Sketch.</desc>
    <defs></defs>
    <g id="Symbols" stroke="none" stroke-width="1" fill="none" fill-rule="evenodd">
        <g id="twitter" fill-rule="nonzero" fill="#FFFFFF">
            <g id="Twitter_Social_Icon_Circle_White" transform="translate(17.000000, 23.000000)">
                <g id="White" transform="translate(0.000000, 0.000000)">
                    <path d="M20.727592,53.3090047 C45.2353975,53.3090047 58.6359451,33.0009584 58.6359451,15.4006516 C58.6359451,14.8204217 58.6359451,14.2401918 58.6083151,13.6875919 C61.2055346,11.8087522 63.4711942,9.46020266 65.2671439,6.78009315 C62.8909643,7.83003296 60.3213748,8.54841283 57.6136353,8.87997277 C60.3766348,7.22217307 62.4765144,4.62495354 63.4711942,1.50276411 C60.9016047,3.02241383 58.0557152,4.12761363 55.0164158,4.73547352 C52.5849762,2.13825399 49.1312268,0.535714286 45.2906575,0.535714286 C37.9410789,0.535714286 31.973,6.5037932 31.973,13.8533719 C31.973,14.9033117 32.0835199,15.9256215 32.3321899,16.8926713 C21.2525619,16.3400714 11.4439137,11.0351124 4.86797489,2.96715384 C3.7351451,4.92888349 3.07202522,7.22217307 3.07202522,9.65361263 C3.07202522,14.2678218 5.42057479,18.357061 9.01247414,20.7332406 C6.82970454,20.6779806 4.78508491,20.0701207 2.98913524,19.0754409 L2.98913524,19.2412209 C2.98913524,25.7066397 7.5757144,31.0668587 13.6819433,32.3102085 C12.5767435,32.6141384 11.3886537,32.7799184 10.1729339,32.7799184 C9.31640409,32.7799184 8.48750424,32.6970284 7.65860439,32.5312485 C9.34403408,37.8362075 14.2621732,41.6767768 20.0921021,41.7872968 C15.533153,45.3515661 9.786114,47.4790757 3.54173514,47.4790757 C2.46416533,47.4790757 1.41422552,47.4238158 0.364285714,47.2856658 C6.19421465,51.0986051 13.2122334,53.3090047 20.727592,53.3090047 L20.727592,53.3090047 Z" id="Shape"></path>
                </g>
            </g>
        </g>
    </g>
</svg>